<svg width="140" height="57" viewBox="0 0 140 57" fill="none" xmlns="http://www.w3.org/2000/svg">
<path d="M26.912 15.44C27.5733 15.568 28.064 15.792 28.384 16.112C28.7253 16.432 28.896 16.8053 28.896 17.232C28.896 17.936 28.6933 18.448 28.288 18.768C27.904 19.088 27.2853 19.216 26.432 19.152C24.512 19.0027 23.008 18.9067 21.92 18.864C20.8533 18.8 19.4453 18.7573 17.696 18.736C16.9067 22.6613 16.1813 26.608 15.52 30.576C15.2853 32.0267 15.04 33.712 14.784 35.632C14.528 37.5307 14.3573 39.0667 14.272 40.24C14.2293 40.8587 13.9733 41.3387 13.504 41.68C13.0347 42 12.4693 42.16 11.808 42.16C11.104 42.16 10.56 41.9893 10.176 41.648C9.792 41.3067 9.6 40.8587 9.6 40.304C9.6 39.792 9.67467 38.9493 9.824 37.776C9.99467 36.5813 10.1867 35.3333 10.4 34.032C10.6347 32.7307 10.816 31.6 10.944 30.64C11.1787 29.0187 11.4453 27.408 11.744 25.808C12.0427 24.208 12.3413 22.6933 12.64 21.264C12.704 20.944 12.7787 20.5813 12.864 20.176C12.9493 19.7493 13.0453 19.28 13.152 18.768C11.0613 18.832 9.41867 19.0027 8.224 19.28C7.02933 19.5573 6.176 19.952 5.664 20.464C5.17333 20.9547 4.928 21.5947 4.928 22.384C4.928 23.1093 5.14133 23.8027 5.568 24.464C5.65333 24.6133 5.696 24.7733 5.696 24.944C5.696 25.3493 5.45067 25.7333 4.96 26.096C4.49067 26.4373 4 26.608 3.488 26.608C3.12533 26.608 2.82667 26.5013 2.592 26.288C2.16533 25.9253 1.81333 25.4133 1.536 24.752C1.25867 24.0693 1.12 23.3013 1.12 22.448C1.12 20.6347 1.70667 19.184 2.88 18.096C4.07467 16.9867 5.87733 16.176 8.288 15.664C10.72 15.152 13.8347 14.896 17.632 14.896C19.9787 14.896 21.8453 14.9387 23.232 15.024C24.64 15.1093 25.8667 15.248 26.912 15.44ZM39.2638 34.928C39.5411 34.928 39.7544 35.0667 39.9038 35.344C40.0744 35.6 40.1597 35.9307 40.1597 36.336C40.1597 36.8267 40.0851 37.2107 39.9358 37.488C39.7864 37.7653 39.5518 38.0107 39.2318 38.224L33.0878 42.352C32.2771 46.768 31.2104 50.2347 29.8878 52.752C28.5864 55.2907 26.9224 56.56 24.8958 56.56C23.8078 56.56 22.9224 56.2187 22.2398 55.536C21.5571 54.8747 21.2157 54 21.2157 52.912C21.2157 51.9093 21.4398 50.8853 21.8878 49.84C22.3571 48.7947 23.2104 47.5893 24.4478 46.224C25.7064 44.88 27.4771 43.3333 29.7598 41.584L29.8558 40.848C30.0051 40.0587 30.1758 38.928 30.3678 37.456C29.9411 38.992 29.3438 40.1653 28.5758 40.976C27.8078 41.7653 26.9971 42.16 26.1438 42.16C25.1838 42.16 24.3944 41.7227 23.7758 40.848C23.1784 39.952 22.8798 38.8427 22.8798 37.52C22.8798 35.92 22.9864 34.4587 23.1998 33.136C23.4131 31.792 23.7651 30.3733 24.2558 28.88C24.4691 28.24 24.7678 27.7813 25.1518 27.504C25.5358 27.2267 26.1438 27.088 26.9758 27.088C27.4451 27.088 27.7651 27.1627 27.9358 27.312C28.1278 27.4613 28.2238 27.6853 28.2238 27.984C28.2238 28.1547 28.1064 28.7307 27.8718 29.712C27.6584 30.5013 27.4878 31.216 27.3598 31.856C27.1891 32.7307 27.0398 33.5733 26.9118 34.384C26.7838 35.1733 26.7198 35.824 26.7198 36.336C26.7198 37.1467 26.9438 37.552 27.3918 37.552C27.7118 37.552 28.1064 37.232 28.5758 36.592C29.0664 35.952 29.5784 34.9813 30.1118 33.68C30.6664 32.3787 31.1998 30.7787 31.7118 28.88C31.8824 28.24 32.1384 27.7813 32.4798 27.504C32.8424 27.2267 33.3758 27.088 34.0798 27.088C34.5704 27.088 34.9118 27.152 35.1038 27.28C35.2958 27.408 35.3918 27.6213 35.3918 27.92C35.3918 28.4533 35.1144 30.288 34.5598 33.424L33.7278 38.576C35.3704 37.3387 36.9704 36.208 38.5278 35.184C38.8051 35.0133 39.0504 34.928 39.2638 34.928ZM25.2478 53.456C25.7811 53.456 26.3784 52.8373 27.0398 51.6C27.7011 50.3627 28.3624 48.304 29.0238 45.424C27.3811 46.8107 26.1864 48.0693 25.4398 49.2C24.7144 50.352 24.3518 51.3547 24.3518 52.208C24.3518 52.5707 24.4158 52.8693 24.5438 53.104C24.6931 53.3387 24.9278 53.456 25.2478 53.456ZM55.5928 34.864C55.8701 34.864 56.0834 34.992 56.2328 35.248C56.4034 35.504 56.4888 35.856 56.4888 36.304C56.4888 37.1573 56.2861 37.8187 55.8808 38.288C54.9634 39.4187 53.9714 40.3467 52.9048 41.072C51.8594 41.7973 50.6648 42.16 49.3208 42.16C48.1901 42.16 47.2728 41.7547 46.5688 40.944C45.3528 41.7333 44.0834 42.1387 42.7608 42.16C42.4834 46.2773 41.8541 49.712 40.8728 52.464C39.8914 55.2373 38.4514 56.624 36.5527 56.624C35.4007 56.624 34.5474 56.208 33.9927 55.376C33.4381 54.544 33.1607 53.392 33.1607 51.92C33.1607 49.8293 33.6407 47.3867 34.6007 44.592C35.5607 41.8187 37.0434 38.7573 39.0488 35.408C39.0488 32.2933 39.0274 30.128 38.9848 28.912C38.9634 28.2933 39.2088 27.8027 39.7208 27.44C40.2328 27.0773 40.8728 26.896 41.6408 26.896C42.0888 26.896 42.4088 26.992 42.6008 27.184C42.8141 27.3547 42.9314 27.7067 42.9528 28.24C42.9528 28.7733 42.9634 29.168 42.9848 29.424C43.6674 28.5707 44.3394 27.9627 45.0008 27.6C45.6621 27.216 46.3661 27.024 47.1128 27.024C48.3074 27.024 49.2781 27.504 50.0248 28.464C50.7928 29.424 51.1768 30.6827 51.1768 32.24C51.1768 33.3707 50.9954 34.4693 50.6328 35.536C50.2701 36.6027 49.7688 37.5733 49.1288 38.448C49.5768 38.576 49.9501 38.64 50.2488 38.64C50.9528 38.64 51.6248 38.384 52.2648 37.872C52.9048 37.36 53.7261 36.5067 54.7288 35.312C54.9848 35.0133 55.2728 34.864 55.5928 34.864ZM42.9208 39.088C43.6888 38.9173 44.3928 38.5013 45.0328 37.84C45.6941 37.1573 46.2168 36.3253 46.6008 35.344C46.9848 34.3413 47.1768 33.296 47.1768 32.208C47.1768 31.568 47.0488 31.088 46.7928 30.768C46.5368 30.4267 46.1954 30.256 45.7688 30.256C45.0008 30.256 44.0728 31.0667 42.9848 32.688C42.9634 33.6267 42.9528 35.0027 42.9528 36.816C42.9528 37.7973 42.9421 38.5547 42.9208 39.088ZM36.8087 53.488C37.3848 53.488 37.8648 52.2293 38.2488 49.712C38.6328 47.216 38.8781 44.1013 38.9848 40.368C38.0674 42.5013 37.3421 44.5387 36.8087 46.48C36.2754 48.4213 36.0087 50.0533 36.0087 51.376C36.0087 52.0587 36.0941 52.5813 36.2647 52.944C36.4141 53.3067 36.5954 53.488 36.8087 53.488ZM68.183 34.864C68.4603 34.864 68.6737 34.992 68.823 35.248C68.9937 35.504 69.079 35.856 69.079 36.304C69.079 37.1573 68.8763 37.8187 68.471 38.288C67.6817 39.248 66.5617 40.1333 65.111 40.944C63.6817 41.7547 62.1457 42.16 60.503 42.16C58.263 42.16 56.5243 41.552 55.287 40.336C54.0497 39.12 53.431 37.456 53.431 35.344C53.431 33.872 53.7403 32.5067 54.359 31.248C54.9777 29.968 55.831 28.9547 56.919 28.208C58.0283 27.4613 59.2763 27.088 60.663 27.088C61.9003 27.088 62.8923 27.4613 63.639 28.208C64.3857 28.9333 64.759 29.9253 64.759 31.184C64.759 32.656 64.2257 33.9253 63.159 34.992C62.1137 36.0373 60.3323 36.8693 57.815 37.488C58.3483 38.4693 59.3617 38.96 60.855 38.96C61.815 38.96 62.903 38.6293 64.119 37.968C65.3563 37.2853 66.423 36.4 67.319 35.312C67.575 35.0133 67.863 34.864 68.183 34.864ZM60.119 30.224C59.3297 30.224 58.6577 30.6827 58.103 31.6C57.5697 32.5173 57.303 33.6267 57.303 34.928V34.992C58.5617 34.6933 59.5537 34.2453 60.279 33.648C61.0043 33.0507 61.367 32.3573 61.367 31.568C61.367 31.1627 61.2497 30.8427 61.015 30.608C60.8017 30.352 60.503 30.224 60.119 30.224ZM91.8495 15.44C92.5108 15.568 93.0015 15.792 93.3215 16.112C93.6628 16.432 93.8335 16.8053 93.8335 17.232C93.8335 17.936 93.6308 18.448 93.2255 18.768C92.8415 19.088 92.2228 19.216 91.3695 19.152C89.4495 19.0027 87.9455 18.9067 86.8575 18.864C85.7908 18.8 84.3828 18.7573 82.6335 18.736C81.8442 22.6613 81.1188 26.608 80.4575 30.576C80.2228 32.0267 79.9775 33.712 79.7215 35.632C79.4655 37.5307 79.2948 39.0667 79.2095 40.24C79.1668 40.8587 78.9108 41.3387 78.4415 41.68C77.9722 42 77.4068 42.16 76.7455 42.16C76.0415 42.16 75.4975 41.9893 75.1135 41.648C74.7295 41.3067 74.5375 40.8587 74.5375 40.304C74.5375 39.792 74.6122 38.9493 74.7615 37.776C74.9322 36.5813 75.1242 35.3333 75.3375 34.032C75.5722 32.7307 75.7535 31.6 75.8815 30.64C76.1162 29.0187 76.3828 27.408 76.6815 25.808C76.9802 24.208 77.2788 22.6933 77.5775 21.264C77.6415 20.944 77.7162 20.5813 77.8015 20.176C77.8868 19.7493 77.9828 19.28 78.0895 18.768C75.9988 18.832 74.3562 19.0027 73.1615 19.28C71.9668 19.5573 71.1135 19.952 70.6015 20.464C70.1108 20.9547 69.8655 21.5947 69.8655 22.384C69.8655 23.1093 70.0788 23.8027 70.5055 24.464C70.5908 24.6133 70.6335 24.7733 70.6335 24.944C70.6335 25.3493 70.3882 25.7333 69.8975 26.096C69.4282 26.4373 68.9375 26.608 68.4255 26.608C68.0628 26.608 67.7642 26.5013 67.5295 26.288C67.1028 25.9253 66.7508 25.4133 66.4735 24.752C66.1962 24.0693 66.0575 23.3013 66.0575 22.448C66.0575 20.6347 66.6442 19.184 67.8175 18.096C69.0122 16.9867 70.8148 16.176 73.2255 15.664C75.6575 15.152 78.7722 14.896 82.5695 14.896C84.9162 14.896 86.7828 14.9387 88.1695 15.024C89.5775 15.1093 90.8042 15.248 91.8495 15.44ZM89.6908 42.16C88.3681 42.16 87.3121 41.68 86.5228 40.72C85.7334 39.76 85.3388 38.5013 85.3388 36.944C85.3388 35.2373 85.7334 33.6267 86.5228 32.112C87.3121 30.576 88.3574 29.3493 89.6588 28.432C90.9814 27.4933 92.3788 27.024 93.8508 27.024C94.3201 27.024 94.6294 27.12 94.7788 27.312C94.9494 27.4827 95.0881 27.8027 95.1948 28.272C95.6428 28.1867 96.1121 28.144 96.6028 28.144C97.6481 28.144 98.1708 28.5173 98.1708 29.264C98.1708 29.712 98.0108 30.7787 97.6908 32.464C97.2001 34.9173 96.9548 36.624 96.9548 37.584C96.9548 37.904 97.0294 38.16 97.1788 38.352C97.3494 38.544 97.5628 38.64 97.8188 38.64C98.2241 38.64 98.7148 38.384 99.2908 37.872C99.8668 37.3387 100.645 36.4853 101.627 35.312C101.883 35.0133 102.171 34.864 102.491 34.864C102.768 34.864 102.981 34.992 103.131 35.248C103.301 35.504 103.387 35.856 103.387 36.304C103.387 37.1573 103.184 37.8187 102.779 38.288C101.904 39.376 100.976 40.2933 99.9948 41.04C99.0134 41.7867 98.0641 42.16 97.1468 42.16C96.4428 42.16 95.7921 41.9253 95.1948 41.456C94.6188 40.9653 94.1814 40.304 93.8828 39.472C92.7734 41.264 91.3761 42.16 89.6908 42.16ZM90.8428 38.928C91.3121 38.928 91.7601 38.6507 92.1868 38.096C92.6134 37.5413 92.9228 36.8053 93.1148 35.888L94.2988 30C93.4028 30.0213 92.5708 30.3627 91.8028 31.024C91.0561 31.664 90.4588 32.5173 90.0108 33.584C89.5628 34.6507 89.3388 35.7813 89.3388 36.976C89.3388 37.6373 89.4668 38.128 89.7228 38.448C90.0001 38.768 90.3734 38.928 90.8428 38.928ZM112.914 34.864C113.191 34.864 113.405 34.992 113.554 35.248C113.725 35.504 113.81 35.856 113.81 36.304C113.81 37.1573 113.607 37.8187 113.202 38.288C112.285 39.4187 111.282 40.3467 110.194 41.072C109.127 41.7973 107.911 42.16 106.546 42.16C104.669 42.16 103.271 41.3067 102.354 39.6C101.458 37.8933 101.01 35.6853 101.01 32.976C101.01 30.3733 101.341 27.408 102.002 24.08C102.685 20.752 103.677 17.8933 104.978 15.504C106.301 13.1147 107.869 11.92 109.682 11.92C110.706 11.92 111.506 12.4 112.082 13.36C112.679 14.2987 112.978 15.6533 112.978 17.424C112.978 19.9627 112.274 22.9067 110.866 26.256C109.458 29.6053 107.549 32.9227 105.138 36.208C105.287 37.0827 105.533 37.712 105.874 38.096C106.215 38.4587 106.663 38.64 107.218 38.64C108.093 38.64 108.861 38.3947 109.522 37.904C110.183 37.392 111.026 36.528 112.05 35.312C112.306 35.0133 112.594 34.864 112.914 34.864ZM108.978 15.088C108.487 15.088 107.933 15.9733 107.314 17.744C106.695 19.5147 106.151 21.712 105.682 24.336C105.213 26.96 104.957 29.4773 104.914 31.888C106.429 29.392 107.634 26.896 108.53 24.4C109.426 21.8827 109.874 19.5893 109.874 17.52C109.874 15.8987 109.575 15.088 108.978 15.088ZM122.68 35.824C122.957 35.824 123.17 35.952 123.32 36.208C123.49 36.464 123.576 36.816 123.576 37.264C123.576 38.032 123.394 38.6933 123.032 39.248C122.434 40.1653 121.645 40.88 120.664 41.392C119.704 41.904 118.552 42.16 117.208 42.16C115.16 42.16 113.57 41.552 112.44 40.336C111.309 39.0987 110.743 37.4347 110.743 35.344C110.743 33.872 111.053 32.5067 111.672 31.248C112.29 29.968 113.144 28.9547 114.232 28.208C115.341 27.4613 116.589 27.088 117.976 27.088C119.213 27.088 120.205 27.4613 120.952 28.208C121.698 28.9333 122.072 29.9253 122.072 31.184C122.072 32.656 121.538 33.9253 120.472 34.992C119.426 36.0373 117.634 36.8693 115.096 37.488C115.608 38.4693 116.472 38.96 117.688 38.96C118.562 38.96 119.277 38.7573 119.832 38.352C120.408 37.9467 121.069 37.264 121.816 36.304C122.072 35.984 122.36 35.824 122.68 35.824ZM117.432 30.224C116.642 30.224 115.97 30.6827 115.416 31.6C114.882 32.5173 114.616 33.6267 114.616 34.928V34.992C115.874 34.6933 116.866 34.2453 117.592 33.648C118.317 33.0507 118.68 32.3573 118.68 31.568C118.68 31.1627 118.562 30.8427 118.328 30.608C118.114 30.352 117.816 30.224 117.432 30.224Z" fill="#F9FAFB"/>
<path fill-rule="evenodd" clip-rule="evenodd" d="M134.293 19.293C134.473 19.1118 134.715 19.006 134.97 18.9974C135.225 18.9887 135.473 19.0778 135.665 19.2465C135.856 19.4152 135.976 19.6506 135.999 19.9047C136.023 20.1587 135.948 20.4121 135.791 20.6131L135.707 20.7071L134.207 22.2071C133.917 22.497 133.573 22.727 133.195 22.884C132.816 23.0409 132.41 23.1217 132 23.1217C131.59 23.1217 131.184 23.0409 130.805 22.884C130.427 22.727 130.083 22.497 129.793 22.2071C129.599 22.0125 129.34 21.8961 129.066 21.8801C128.791 21.864 128.521 21.9494 128.305 22.1201L128.207 22.2071L127.707 22.7071C127.527 22.8864 127.286 22.9905 127.032 22.9983C126.778 23.006 126.53 22.9168 126.34 22.7488C126.149 22.5808 126.03 22.3465 126.006 22.0936C125.982 21.8407 126.055 21.588 126.21 21.387L126.293 21.293L126.793 20.793C127.083 20.5031 127.427 20.2731 127.805 20.1161C128.184 19.9592 128.59 19.8784 129 19.8784C129.41 19.8784 129.816 19.9592 130.195 20.1161C130.573 20.2731 130.917 20.5031 131.207 20.793C131.401 20.9876 131.66 21.104 131.934 21.12C132.209 21.1361 132.48 21.0507 132.695 20.88L132.793 20.793L134.293 19.293ZM132.483 5.98305C132.941 5.52535 133.559 5.26318 134.206 5.25173C134.853 5.24028 135.48 5.48044 135.954 5.92166C136.428 6.36288 136.712 6.97073 136.747 7.61728C136.781 8.26382 136.564 8.89862 136.14 9.38805L136.018 9.51905L124.443 21.094C124.299 21.2383 124.127 21.3516 123.937 21.427L123.792 21.477L120.955 22.284C120.792 22.3306 120.621 22.3352 120.456 22.2973C120.291 22.2594 120.138 22.1803 120.012 22.0674C119.886 21.9545 119.791 21.8115 119.735 21.6518C119.68 21.492 119.665 21.3208 119.694 21.154L119.718 21.0471L120.525 18.209C120.581 18.0129 120.676 17.8302 120.805 17.672L120.907 17.559L132.483 5.98305ZM134.603 7.39805C134.52 7.31548 134.411 7.26446 134.295 7.25387C134.179 7.24327 134.062 7.27376 133.966 7.34005L133.896 7.39805L122.414 18.88L122.134 19.868L123.121 19.588L134.604 8.10405C134.698 8.01029 134.75 7.88313 134.75 7.75055C134.75 7.61797 134.698 7.49081 134.604 7.39705" fill="#F9FAFB"/>
</svg>
