<svg xmlns="http://www.w3.org/2000/svg" version="1.1" xmlns:xlink="http://www.w3.org/1999/xlink" xmlns:svgjs="http://svgjs.dev/svgjs" viewBox="0 0 800 800"><defs><linearGradient gradientTransform="rotate(270)" x1="50%" y1="0%" x2="50%" y2="100%" id="sssquiggly-grad"><stop stop-color="oklch(60.9% 0.126 221.723)" stop-opacity="1" offset="0%"></stop><stop stop-color="oklch(62.3% 0.214 259.815)" stop-opacity="1" offset="100%"></stop></linearGradient></defs><g stroke-width="2" stroke="url(#sssquiggly-grad)" fill="none" stroke-linecap="round" transform="matrix(1,0,0,1,0,55.98413848876953)"><path d="M10,10C21.805555555555557,11.041666666666666,40.97222222222223,22.916666666666664,66.66666666666667,15C92.36111111111111,7.083333333333334,105.55555555555557,-29.875,133.33333333333334,-28C161.11111111111111,-26.125,172.22222222222223,19.416666666666668,200,24C227.77777777777777,28.583333333333332,238.8888888888889,-9.125,266.6666666666667,-6C294.44444444444446,-2.875,305.5555555555556,42.541666666666664,333.33333333333337,39C361.11111111111114,35.458333333333336,372.22222222222223,-25.5,400,-23C427.77777777777777,-20.5,438.8888888888889,48.083333333333336,466.6666666666667,51C494.44444444444446,53.916666666666664,505.5555555555556,-7.541666666666666,533.3333333333334,-9C561.1111111111111,-10.458333333333334,572.2222222222222,44,600,44C627.7777777777778,44,638.8888888888889,-7.958333333333333,666.6666666666667,-9C694.4444444444446,-10.041666666666666,707.6388888888889,35.041666666666664,733.3333333333334,39C759.0277777777778,42.958333333333336,778.1944444444445,16.041666666666664,790,10"></path><path d="M10,10C21.805555555555557,11.041666666666666,40.97222222222223,22.916666666666664,66.66666666666667,15C92.36111111111111,7.083333333333334,105.55555555555557,-29.875,133.33333333333334,-28C161.11111111111111,-26.125,172.22222222222223,19.416666666666668,200,24C227.77777777777777,28.583333333333332,238.8888888888889,-9.125,266.6666666666667,-6C294.44444444444446,-2.875,305.5555555555556,42.541666666666664,333.33333333333337,39C361.11111111111114,35.458333333333336,372.22222222222223,-25.5,400,-23C427.77777777777777,-20.5,438.8888888888889,48.083333333333336,466.6666666666667,51C494.44444444444446,53.916666666666664,505.5555555555556,-7.541666666666666,533.3333333333334,-9C561.1111111111111,-10.458333333333334,572.2222222222222,44,600,44C627.7777777777778,44,638.8888888888889,-7.958333333333333,666.6666666666667,-9C694.4444444444446,-10.041666666666666,707.6388888888889,35.041666666666664,733.3333333333334,39C759.0277777777778,42.958333333333336,778.1944444444445,16.041666666666664,790,10" transform="matrix(1,0,0,1,0,665)"></path><path d="M10,10C21.805555555555557,11.041666666666666,40.97222222222223,22.916666666666664,66.66666666666667,15C92.36111111111111,7.083333333333334,105.55555555555557,-29.875,133.33333333333334,-28C161.11111111111111,-26.125,172.22222222222223,19.416666666666668,200,24C227.77777777777777,28.583333333333332,238.8888888888889,-9.125,266.6666666666667,-6C294.44444444444446,-2.875,305.5555555555556,42.541666666666664,333.33333333333337,39C361.11111111111114,35.458333333333336,372.22222222222223,-25.5,400,-23C427.77777777777777,-20.5,438.8888888888889,48.083333333333336,466.6666666666667,51C494.44444444444446,53.916666666666664,505.5555555555556,-7.541666666666666,533.3333333333334,-9C561.1111111111111,-10.458333333333334,572.2222222222222,44,600,44C627.7777777777778,44,638.8888888888889,-7.958333333333333,666.6666666666667,-9C694.4444444444446,-10.041666666666666,707.6388888888889,35.041666666666664,733.3333333333334,39C759.0277777777778,42.958333333333336,778.1944444444445,16.041666666666664,790,10" transform="matrix(1,0,0,1,0,630)"></path><path d="M10,10C21.805555555555557,11.041666666666666,40.97222222222223,22.916666666666664,66.66666666666667,15C92.36111111111111,7.083333333333334,105.55555555555557,-29.875,133.33333333333334,-28C161.11111111111111,-26.125,172.22222222222223,19.416666666666668,200,24C227.77777777777777,28.583333333333332,238.8888888888889,-9.125,266.6666666666667,-6C294.44444444444446,-2.875,305.5555555555556,42.541666666666664,333.33333333333337,39C361.11111111111114,35.458333333333336,372.22222222222223,-25.5,400,-23C427.77777777777777,-20.5,438.8888888888889,48.083333333333336,466.6666666666667,51C494.44444444444446,53.916666666666664,505.5555555555556,-7.541666666666666,533.3333333333334,-9C561.1111111111111,-10.458333333333334,572.2222222222222,44,600,44C627.7777777777778,44,638.8888888888889,-7.958333333333333,666.6666666666667,-9C694.4444444444446,-10.041666666666666,707.6388888888889,35.041666666666664,733.3333333333334,39C759.0277777777778,42.958333333333336,778.1944444444445,16.041666666666664,790,10" transform="matrix(1,0,0,1,0,595)"></path><path d="M10,10C21.805555555555557,11.041666666666666,40.97222222222223,22.916666666666664,66.66666666666667,15C92.36111111111111,7.083333333333334,105.55555555555557,-29.875,133.33333333333334,-28C161.11111111111111,-26.125,172.22222222222223,19.416666666666668,200,24C227.77777777777777,28.583333333333332,238.8888888888889,-9.125,266.6666666666667,-6C294.44444444444446,-2.875,305.5555555555556,42.541666666666664,333.33333333333337,39C361.11111111111114,35.458333333333336,372.22222222222223,-25.5,400,-23C427.77777777777777,-20.5,438.8888888888889,48.083333333333336,466.6666666666667,51C494.44444444444446,53.916666666666664,505.5555555555556,-7.541666666666666,533.3333333333334,-9C561.1111111111111,-10.458333333333334,572.2222222222222,44,600,44C627.7777777777778,44,638.8888888888889,-7.958333333333333,666.6666666666667,-9C694.4444444444446,-10.041666666666666,707.6388888888889,35.041666666666664,733.3333333333334,39C759.0277777777778,42.958333333333336,778.1944444444445,16.041666666666664,790,10" transform="matrix(1,0,0,1,0,560)"></path><path d="M10,10C21.805555555555557,11.041666666666666,40.97222222222223,22.916666666666664,66.66666666666667,15C92.36111111111111,7.083333333333334,105.55555555555557,-29.875,133.33333333333334,-28C161.11111111111111,-26.125,172.22222222222223,19.416666666666668,200,24C227.77777777777777,28.583333333333332,238.8888888888889,-9.125,266.6666666666667,-6C294.44444444444446,-2.875,305.5555555555556,42.541666666666664,333.33333333333337,39C361.11111111111114,35.458333333333336,372.22222222222223,-25.5,400,-23C427.77777777777777,-20.5,438.8888888888889,48.083333333333336,466.6666666666667,51C494.44444444444446,53.916666666666664,505.5555555555556,-7.541666666666666,533.3333333333334,-9C561.1111111111111,-10.458333333333334,572.2222222222222,44,600,44C627.7777777777778,44,638.8888888888889,-7.958333333333333,666.6666666666667,-9C694.4444444444446,-10.041666666666666,707.6388888888889,35.041666666666664,733.3333333333334,39C759.0277777777778,42.958333333333336,778.1944444444445,16.041666666666664,790,10" transform="matrix(1,0,0,1,0,525)"></path><path d="M10,10C21.805555555555557,11.041666666666666,40.97222222222223,22.916666666666664,66.66666666666667,15C92.36111111111111,7.083333333333334,105.55555555555557,-29.875,133.33333333333334,-28C161.11111111111111,-26.125,172.22222222222223,19.416666666666668,200,24C227.77777777777777,28.583333333333332,238.8888888888889,-9.125,266.6666666666667,-6C294.44444444444446,-2.875,305.5555555555556,42.541666666666664,333.33333333333337,39C361.11111111111114,35.458333333333336,372.22222222222223,-25.5,400,-23C427.77777777777777,-20.5,438.8888888888889,48.083333333333336,466.6666666666667,51C494.44444444444446,53.916666666666664,505.5555555555556,-7.541666666666666,533.3333333333334,-9C561.1111111111111,-10.458333333333334,572.2222222222222,44,600,44C627.7777777777778,44,638.8888888888889,-7.958333333333333,666.6666666666667,-9C694.4444444444446,-10.041666666666666,707.6388888888889,35.041666666666664,733.3333333333334,39C759.0277777777778,42.958333333333336,778.1944444444445,16.041666666666664,790,10" transform="matrix(1,0,0,1,0,490)"></path><path d="M10,10C21.805555555555557,11.041666666666666,40.97222222222223,22.916666666666664,66.66666666666667,15C92.36111111111111,7.083333333333334,105.55555555555557,-29.875,133.33333333333334,-28C161.11111111111111,-26.125,172.22222222222223,19.416666666666668,200,24C227.77777777777777,28.583333333333332,238.8888888888889,-9.125,266.6666666666667,-6C294.44444444444446,-2.875,305.5555555555556,42.541666666666664,333.33333333333337,39C361.11111111111114,35.458333333333336,372.22222222222223,-25.5,400,-23C427.77777777777777,-20.5,438.8888888888889,48.083333333333336,466.6666666666667,51C494.44444444444446,53.916666666666664,505.5555555555556,-7.541666666666666,533.3333333333334,-9C561.1111111111111,-10.458333333333334,572.2222222222222,44,600,44C627.7777777777778,44,638.8888888888889,-7.958333333333333,666.6666666666667,-9C694.4444444444446,-10.041666666666666,707.6388888888889,35.041666666666664,733.3333333333334,39C759.0277777777778,42.958333333333336,778.1944444444445,16.041666666666664,790,10" transform="matrix(1,0,0,1,0,455)"></path><path d="M10,10C21.805555555555557,11.041666666666666,40.97222222222223,22.916666666666664,66.66666666666667,15C92.36111111111111,7.083333333333334,105.55555555555557,-29.875,133.33333333333334,-28C161.11111111111111,-26.125,172.22222222222223,19.416666666666668,200,24C227.77777777777777,28.583333333333332,238.8888888888889,-9.125,266.6666666666667,-6C294.44444444444446,-2.875,305.5555555555556,42.541666666666664,333.33333333333337,39C361.11111111111114,35.458333333333336,372.22222222222223,-25.5,400,-23C427.77777777777777,-20.5,438.8888888888889,48.083333333333336,466.6666666666667,51C494.44444444444446,53.916666666666664,505.5555555555556,-7.541666666666666,533.3333333333334,-9C561.1111111111111,-10.458333333333334,572.2222222222222,44,600,44C627.7777777777778,44,638.8888888888889,-7.958333333333333,666.6666666666667,-9C694.4444444444446,-10.041666666666666,707.6388888888889,35.041666666666664,733.3333333333334,39C759.0277777777778,42.958333333333336,778.1944444444445,16.041666666666664,790,10" transform="matrix(1,0,0,1,0,420)"></path><path d="M10,10C21.805555555555557,11.041666666666666,40.97222222222223,22.916666666666664,66.66666666666667,15C92.36111111111111,7.083333333333334,105.55555555555557,-29.875,133.33333333333334,-28C161.11111111111111,-26.125,172.22222222222223,19.416666666666668,200,24C227.77777777777777,28.583333333333332,238.8888888888889,-9.125,266.6666666666667,-6C294.44444444444446,-2.875,305.5555555555556,42.541666666666664,333.33333333333337,39C361.11111111111114,35.458333333333336,372.22222222222223,-25.5,400,-23C427.77777777777777,-20.5,438.8888888888889,48.083333333333336,466.6666666666667,51C494.44444444444446,53.916666666666664,505.5555555555556,-7.541666666666666,533.3333333333334,-9C561.1111111111111,-10.458333333333334,572.2222222222222,44,600,44C627.7777777777778,44,638.8888888888889,-7.958333333333333,666.6666666666667,-9C694.4444444444446,-10.041666666666666,707.6388888888889,35.041666666666664,733.3333333333334,39C759.0277777777778,42.958333333333336,778.1944444444445,16.041666666666664,790,10" transform="matrix(1,0,0,1,0,385)"></path><path d="M10,10C21.805555555555557,11.041666666666666,40.97222222222223,22.916666666666664,66.66666666666667,15C92.36111111111111,7.083333333333334,105.55555555555557,-29.875,133.33333333333334,-28C161.11111111111111,-26.125,172.22222222222223,19.416666666666668,200,24C227.77777777777777,28.583333333333332,238.8888888888889,-9.125,266.6666666666667,-6C294.44444444444446,-2.875,305.5555555555556,42.541666666666664,333.33333333333337,39C361.11111111111114,35.458333333333336,372.22222222222223,-25.5,400,-23C427.77777777777777,-20.5,438.8888888888889,48.083333333333336,466.6666666666667,51C494.44444444444446,53.916666666666664,505.5555555555556,-7.541666666666666,533.3333333333334,-9C561.1111111111111,-10.458333333333334,572.2222222222222,44,600,44C627.7777777777778,44,638.8888888888889,-7.958333333333333,666.6666666666667,-9C694.4444444444446,-10.041666666666666,707.6388888888889,35.041666666666664,733.3333333333334,39C759.0277777777778,42.958333333333336,778.1944444444445,16.041666666666664,790,10" transform="matrix(1,0,0,1,0,350)"></path><path d="M10,10C21.805555555555557,11.041666666666666,40.97222222222223,22.916666666666664,66.66666666666667,15C92.36111111111111,7.083333333333334,105.55555555555557,-29.875,133.33333333333334,-28C161.11111111111111,-26.125,172.22222222222223,19.416666666666668,200,24C227.77777777777777,28.583333333333332,238.8888888888889,-9.125,266.6666666666667,-6C294.44444444444446,-2.875,305.5555555555556,42.541666666666664,333.33333333333337,39C361.11111111111114,35.458333333333336,372.22222222222223,-25.5,400,-23C427.77777777777777,-20.5,438.8888888888889,48.083333333333336,466.6666666666667,51C494.44444444444446,53.916666666666664,505.5555555555556,-7.541666666666666,533.3333333333334,-9C561.1111111111111,-10.458333333333334,572.2222222222222,44,600,44C627.7777777777778,44,638.8888888888889,-7.958333333333333,666.6666666666667,-9C694.4444444444446,-10.041666666666666,707.6388888888889,35.041666666666664,733.3333333333334,39C759.0277777777778,42.958333333333336,778.1944444444445,16.041666666666664,790,10" transform="matrix(1,0,0,1,0,315)"></path><path d="M10,10C21.805555555555557,11.041666666666666,40.97222222222223,22.916666666666664,66.66666666666667,15C92.36111111111111,7.083333333333334,105.55555555555557,-29.875,133.33333333333334,-28C161.11111111111111,-26.125,172.22222222222223,19.416666666666668,200,24C227.77777777777777,28.583333333333332,238.8888888888889,-9.125,266.6666666666667,-6C294.44444444444446,-2.875,305.5555555555556,42.541666666666664,333.33333333333337,39C361.11111111111114,35.458333333333336,372.22222222222223,-25.5,400,-23C427.77777777777777,-20.5,438.8888888888889,48.083333333333336,466.6666666666667,51C494.44444444444446,53.916666666666664,505.5555555555556,-7.541666666666666,533.3333333333334,-9C561.1111111111111,-10.458333333333334,572.2222222222222,44,600,44C627.7777777777778,44,638.8888888888889,-7.958333333333333,666.6666666666667,-9C694.4444444444446,-10.041666666666666,707.6388888888889,35.041666666666664,733.3333333333334,39C759.0277777777778,42.958333333333336,778.1944444444445,16.041666666666664,790,10" transform="matrix(1,0,0,1,0,280)"></path><path d="M10,10C21.805555555555557,11.041666666666666,40.97222222222223,22.916666666666664,66.66666666666667,15C92.36111111111111,7.083333333333334,105.55555555555557,-29.875,133.33333333333334,-28C161.11111111111111,-26.125,172.22222222222223,19.416666666666668,200,24C227.77777777777777,28.583333333333332,238.8888888888889,-9.125,266.6666666666667,-6C294.44444444444446,-2.875,305.5555555555556,42.541666666666664,333.33333333333337,39C361.11111111111114,35.458333333333336,372.22222222222223,-25.5,400,-23C427.77777777777777,-20.5,438.8888888888889,48.083333333333336,466.6666666666667,51C494.44444444444446,53.916666666666664,505.5555555555556,-7.541666666666666,533.3333333333334,-9C561.1111111111111,-10.458333333333334,572.2222222222222,44,600,44C627.7777777777778,44,638.8888888888889,-7.958333333333333,666.6666666666667,-9C694.4444444444446,-10.041666666666666,707.6388888888889,35.041666666666664,733.3333333333334,39C759.0277777777778,42.958333333333336,778.1944444444445,16.041666666666664,790,10" transform="matrix(1,0,0,1,0,245)"></path><path d="M10,10C21.805555555555557,11.041666666666666,40.97222222222223,22.916666666666664,66.66666666666667,15C92.36111111111111,7.083333333333334,105.55555555555557,-29.875,133.33333333333334,-28C161.11111111111111,-26.125,172.22222222222223,19.416666666666668,200,24C227.77777777777777,28.583333333333332,238.8888888888889,-9.125,266.6666666666667,-6C294.44444444444446,-2.875,305.5555555555556,42.541666666666664,333.33333333333337,39C361.11111111111114,35.458333333333336,372.22222222222223,-25.5,400,-23C427.77777777777777,-20.5,438.8888888888889,48.083333333333336,466.6666666666667,51C494.44444444444446,53.916666666666664,505.5555555555556,-7.541666666666666,533.3333333333334,-9C561.1111111111111,-10.458333333333334,572.2222222222222,44,600,44C627.7777777777778,44,638.8888888888889,-7.958333333333333,666.6666666666667,-9C694.4444444444446,-10.041666666666666,707.6388888888889,35.041666666666664,733.3333333333334,39C759.0277777777778,42.958333333333336,778.1944444444445,16.041666666666664,790,10" transform="matrix(1,0,0,1,0,210)"></path><path d="M10,10C21.805555555555557,11.041666666666666,40.97222222222223,22.916666666666664,66.66666666666667,15C92.36111111111111,7.083333333333334,105.55555555555557,-29.875,133.33333333333334,-28C161.11111111111111,-26.125,172.22222222222223,19.416666666666668,200,24C227.77777777777777,28.583333333333332,238.8888888888889,-9.125,266.6666666666667,-6C294.44444444444446,-2.875,305.5555555555556,42.541666666666664,333.33333333333337,39C361.11111111111114,35.458333333333336,372.22222222222223,-25.5,400,-23C427.77777777777777,-20.5,438.8888888888889,48.083333333333336,466.6666666666667,51C494.44444444444446,53.916666666666664,505.5555555555556,-7.541666666666666,533.3333333333334,-9C561.1111111111111,-10.458333333333334,572.2222222222222,44,600,44C627.7777777777778,44,638.8888888888889,-7.958333333333333,666.6666666666667,-9C694.4444444444446,-10.041666666666666,707.6388888888889,35.041666666666664,733.3333333333334,39C759.0277777777778,42.958333333333336,778.1944444444445,16.041666666666664,790,10" transform="matrix(1,0,0,1,0,175)"></path><path d="M10,10C21.805555555555557,11.041666666666666,40.97222222222223,22.916666666666664,66.66666666666667,15C92.36111111111111,7.083333333333334,105.55555555555557,-29.875,133.33333333333334,-28C161.11111111111111,-26.125,172.22222222222223,19.416666666666668,200,24C227.77777777777777,28.583333333333332,238.8888888888889,-9.125,266.6666666666667,-6C294.44444444444446,-2.875,305.5555555555556,42.541666666666664,333.33333333333337,39C361.11111111111114,35.458333333333336,372.22222222222223,-25.5,400,-23C427.77777777777777,-20.5,438.8888888888889,48.083333333333336,466.6666666666667,51C494.44444444444446,53.916666666666664,505.5555555555556,-7.541666666666666,533.3333333333334,-9C561.1111111111111,-10.458333333333334,572.2222222222222,44,600,44C627.7777777777778,44,638.8888888888889,-7.958333333333333,666.6666666666667,-9C694.4444444444446,-10.041666666666666,707.6388888888889,35.041666666666664,733.3333333333334,39C759.0277777777778,42.958333333333336,778.1944444444445,16.041666666666664,790,10" transform="matrix(1,0,0,1,0,140)"></path><path d="M10,10C21.805555555555557,11.041666666666666,40.97222222222223,22.916666666666664,66.66666666666667,15C92.36111111111111,7.083333333333334,105.55555555555557,-29.875,133.33333333333334,-28C161.11111111111111,-26.125,172.22222222222223,19.416666666666668,200,24C227.77777777777777,28.583333333333332,238.8888888888889,-9.125,266.6666666666667,-6C294.44444444444446,-2.875,305.5555555555556,42.541666666666664,333.33333333333337,39C361.11111111111114,35.458333333333336,372.22222222222223,-25.5,400,-23C427.77777777777777,-20.5,438.8888888888889,48.083333333333336,466.6666666666667,51C494.44444444444446,53.916666666666664,505.5555555555556,-7.541666666666666,533.3333333333334,-9C561.1111111111111,-10.458333333333334,572.2222222222222,44,600,44C627.7777777777778,44,638.8888888888889,-7.958333333333333,666.6666666666667,-9C694.4444444444446,-10.041666666666666,707.6388888888889,35.041666666666664,733.3333333333334,39C759.0277777777778,42.958333333333336,778.1944444444445,16.041666666666664,790,10" transform="matrix(1,0,0,1,0,105)"></path><path d="M10,10C21.805555555555557,11.041666666666666,40.97222222222223,22.916666666666664,66.66666666666667,15C92.36111111111111,7.083333333333334,105.55555555555557,-29.875,133.33333333333334,-28C161.11111111111111,-26.125,172.22222222222223,19.416666666666668,200,24C227.77777777777777,28.583333333333332,238.8888888888889,-9.125,266.6666666666667,-6C294.44444444444446,-2.875,305.5555555555556,42.541666666666664,333.33333333333337,39C361.11111111111114,35.458333333333336,372.22222222222223,-25.5,400,-23C427.77777777777777,-20.5,438.8888888888889,48.083333333333336,466.6666666666667,51C494.44444444444446,53.916666666666664,505.5555555555556,-7.541666666666666,533.3333333333334,-9C561.1111111111111,-10.458333333333334,572.2222222222222,44,600,44C627.7777777777778,44,638.8888888888889,-7.958333333333333,666.6666666666667,-9C694.4444444444446,-10.041666666666666,707.6388888888889,35.041666666666664,733.3333333333334,39C759.0277777777778,42.958333333333336,778.1944444444445,16.041666666666664,790,10" transform="matrix(1,0,0,1,0,70)"></path><path d="M10,10C21.805555555555557,11.041666666666666,40.97222222222223,22.916666666666664,66.66666666666667,15C92.36111111111111,7.083333333333334,105.55555555555557,-29.875,133.33333333333334,-28C161.11111111111111,-26.125,172.22222222222223,19.416666666666668,200,24C227.77777777777777,28.583333333333332,238.8888888888889,-9.125,266.6666666666667,-6C294.44444444444446,-2.875,305.5555555555556,42.541666666666664,333.33333333333337,39C361.11111111111114,35.458333333333336,372.22222222222223,-25.5,400,-23C427.77777777777777,-20.5,438.8888888888889,48.083333333333336,466.6666666666667,51C494.44444444444446,53.916666666666664,505.5555555555556,-7.541666666666666,533.3333333333334,-9C561.1111111111111,-10.458333333333334,572.2222222222222,44,600,44C627.7777777777778,44,638.8888888888889,-7.958333333333333,666.6666666666667,-9C694.4444444444446,-10.041666666666666,707.6388888888889,35.041666666666664,733.3333333333334,39C759.0277777777778,42.958333333333336,778.1944444444445,16.041666666666664,790,10" transform="matrix(1,0,0,1,0,35)"></path></g></svg>